# xmcd CD database file
#
# Track frame offsets:
#	150
#	78703
#	149434
#	186344
#	223264
#	272115
#	302003
#
# Disc length: 4336 seconds
#
# Revision: 0
# Processed by: cddbd v1.5.2PL0 Copyright (c) Steve Scherf et al.
# Submitted via: CDex 1.97
#
DISCID=6e10ee07
DTITLE=John Coltrane - 1963 New Directions [CD3)
DYEAR=2018
DGENRE=Jazz
TTITLE0=My Favourite Things
TTITLE1=Impressions
TTITLE2=The Promise
TTITLE3=I Want To Talk About You
TTITLE4=Afro Blue
TTITLE5=Your Lady
TTITLE6=Alabama
EXTD=YEAR: 2018
EXTT0=
EXTT1=
EXTT2=
EXTT3=
EXTT4=
EXTT5=
EXTT6=
PLAYORDER=
